<svg width="27" height="26" viewBox="0 0 27 26" fill="none" xmlns="http://www.w3.org/2000/svg">
<path d="M22.0502 13.7496L22.0502 15.1214L27 13L22.0502 10.8787L22.0502 12.2505L19.4764 12.2505C19.0167 5.24308 12.4053 1.14894 12.1295 0.958017L11.2598 0.455972L10.2416 2.18131L10.9416 2.5985L10.9487 12.2505L6.45146 12.2505L5.07967 10.8787H0.837034L1.54414 13L0.837034 15.1214H5.07967L6.45146 13.7496L10.9487 13.7496L10.9416 23.4016L10.2486 23.8258L11.2598 25.5441L12.1295 25.0421C12.4053 24.8512 19.0167 20.757 19.4764 13.7496L22.0502 13.7496ZM11.9528 3.29854C13.6003 4.55012 17.1005 7.73917 17.4682 12.2505H11.9386L11.9528 3.29854ZM11.9528 22.7015L11.9386 13.7496H17.4682C17.1005 18.2609 13.6003 21.45 11.9528 22.7015Z" fill="#914704"/>
</svg>
