<svg width="348" height="752" viewBox="0 0 348 752" fill="none" xmlns="http://www.w3.org/2000/svg">
<g opacity="0.6">
<path d="M342.219 5.29414C349.927 12.353 349.927 23.8033 342.219 30.8784L251.556 113.909C243.848 120.968 231.345 120.968 223.619 113.909C215.912 106.851 215.912 95.4003 223.619 88.3251L314.283 5.29414C321.991 -1.76471 334.494 -1.76471 342.219 5.29414Z" fill="url(#paint0_linear_22_209)"/>
<path d="M284.518 58.1381C292.225 65.197 292.225 76.6473 284.518 83.7224L193.854 166.753C186.146 173.812 173.644 173.812 165.918 166.753C158.21 159.695 158.21 148.244 165.918 141.169L256.582 58.1381C264.289 51.0793 276.792 51.0793 284.518 58.1381Z" fill="url(#paint1_linear_22_209)"/>
<path d="M59.7216 121.522C63.4334 124.921 63.4334 130.419 59.7216 133.802L16.1925 173.667C12.4807 177.066 6.47787 177.066 2.78384 173.667C-0.927948 170.267 -0.927948 164.77 2.78384 161.387L46.313 121.522C50.0248 118.123 56.0276 118.123 59.7216 121.522Z" fill="url(#paint2_linear_22_209)"/>
<path d="M244.912 449.317C255.566 459.074 255.566 474.9 244.912 484.679L119.602 599.44C108.949 609.196 91.6677 609.196 80.9899 599.44C70.3367 589.683 70.3367 573.857 80.9899 564.079L206.3 449.317C216.954 439.561 234.235 439.561 244.912 449.317Z" fill="url(#paint3_linear_22_209)"/>
<path d="M325.588 194.317C336.241 204.074 336.241 219.9 325.588 229.679L200.277 344.44C189.624 354.196 172.343 354.196 161.665 344.44C151.012 334.683 151.012 318.857 161.665 309.078L287.001 194.317C297.654 184.561 314.935 184.561 325.612 194.317H325.588Z" fill="url(#paint4_linear_22_209)"/>
<path d="M245.836 267.355C256.489 277.112 256.489 292.938 245.836 302.717L120.525 417.478C109.872 427.234 92.5912 427.234 81.9134 417.478C71.2602 407.721 71.2602 391.895 81.9134 382.117L207.224 267.355C217.877 257.599 235.158 257.599 245.836 267.355Z" fill="url(#paint5_linear_22_209)"/>
<path d="M139.18 135L9 260.489" stroke="white" stroke-width="2" stroke-miterlimit="10" stroke-linecap="round"/>
<path d="M326.18 290L196 415.489" stroke="white" stroke-width="2" stroke-miterlimit="10" stroke-linecap="round"/>
<path d="M9 284.439L22.0552 271.867" stroke="white" stroke-width="2" stroke-miterlimit="10" stroke-linecap="round"/>
<path d="M218 454.439L231.055 441.867" stroke="white" stroke-width="2" stroke-miterlimit="10" stroke-linecap="round"/>
<path d="M81.8509 214.214L32.8008 261.487" stroke="white" stroke-width="2" stroke-miterlimit="10" stroke-linecap="round"/>
<path d="M268.851 369.214L219.801 416.487" stroke="white" stroke-width="2" stroke-miterlimit="10" stroke-linecap="round"/>
<path d="M325.912 594.317C336.566 604.074 336.566 619.9 325.912 629.679L200.602 744.44C189.949 754.196 172.668 754.196 161.99 744.44C151.337 734.683 151.337 718.857 161.99 709.078L287.3 594.317C297.954 584.561 315.235 584.561 325.912 594.317Z" fill="url(#paint6_linear_22_209)"/>
</g>
<defs>
<linearGradient id="paint0_linear_22_209" x1="223.637" y1="113.893" x2="331.818" y2="-4.23171" gradientUnits="userSpaceOnUse">
<stop offset="0.08" stop-color="white" stop-opacity="0"/>
<stop offset="0.16" stop-color="white" stop-opacity="0.05"/>
<stop offset="0.3" stop-color="white" stop-opacity="0.17"/>
<stop offset="0.48" stop-color="white" stop-opacity="0.37"/>
<stop offset="0.7" stop-color="white" stop-opacity="0.64"/>
<stop offset="0.96" stop-color="white" stop-opacity="0.98"/>
<stop offset="0.97" stop-color="white"/>
</linearGradient>
<linearGradient id="paint1_linear_22_209" x1="165.936" y1="166.737" x2="274.116" y2="48.6123" gradientUnits="userSpaceOnUse">
<stop offset="0.08" stop-color="white" stop-opacity="0"/>
<stop offset="0.16" stop-color="white" stop-opacity="0.05"/>
<stop offset="0.3" stop-color="white" stop-opacity="0.17"/>
<stop offset="0.48" stop-color="white" stop-opacity="0.37"/>
<stop offset="0.7" stop-color="white" stop-opacity="0.64"/>
<stop offset="0.96" stop-color="white" stop-opacity="0.98"/>
<stop offset="0.97" stop-color="white"/>
</linearGradient>
<linearGradient id="paint2_linear_22_209" x1="-13.1229" y1="186.162" x2="45.2594" y2="122.413" gradientUnits="userSpaceOnUse">
<stop offset="0.08" stop-color="white" stop-opacity="0"/>
<stop offset="0.16" stop-color="white" stop-opacity="0.05"/>
<stop offset="0.3" stop-color="white" stop-opacity="0.17"/>
<stop offset="0.48" stop-color="white" stop-opacity="0.37"/>
<stop offset="0.7" stop-color="white" stop-opacity="0.64"/>
<stop offset="0.96" stop-color="white" stop-opacity="0.98"/>
<stop offset="0.97" stop-color="white"/>
</linearGradient>
<linearGradient id="paint3_linear_22_209" x1="81.0145" y1="599.417" x2="230.536" y2="436.151" gradientUnits="userSpaceOnUse">
<stop offset="0.08" stop-color="white" stop-opacity="0"/>
<stop offset="0.16" stop-color="white" stop-opacity="0.05"/>
<stop offset="0.3" stop-color="white" stop-opacity="0.17"/>
<stop offset="0.48" stop-color="white" stop-opacity="0.37"/>
<stop offset="0.7" stop-color="white" stop-opacity="0.64"/>
<stop offset="0.96" stop-color="white" stop-opacity="0.98"/>
<stop offset="0.97" stop-color="white"/>
</linearGradient>
<linearGradient id="paint4_linear_22_209" x1="161.69" y1="344.417" x2="311.211" y2="181.151" gradientUnits="userSpaceOnUse">
<stop offset="0.08" stop-color="white" stop-opacity="0"/>
<stop offset="0.16" stop-color="white" stop-opacity="0.05"/>
<stop offset="0.3" stop-color="white" stop-opacity="0.17"/>
<stop offset="0.48" stop-color="white" stop-opacity="0.37"/>
<stop offset="0.7" stop-color="white" stop-opacity="0.64"/>
<stop offset="0.96" stop-color="white" stop-opacity="0.98"/>
<stop offset="0.97" stop-color="white"/>
</linearGradient>
<linearGradient id="paint5_linear_22_209" x1="81.9379" y1="417.455" x2="231.459" y2="254.189" gradientUnits="userSpaceOnUse">
<stop offset="0.08" stop-color="white" stop-opacity="0"/>
<stop offset="0.16" stop-color="white" stop-opacity="0.05"/>
<stop offset="0.3" stop-color="white" stop-opacity="0.17"/>
<stop offset="0.48" stop-color="white" stop-opacity="0.37"/>
<stop offset="0.7" stop-color="white" stop-opacity="0.64"/>
<stop offset="0.96" stop-color="white" stop-opacity="0.98"/>
<stop offset="0.97" stop-color="white"/>
</linearGradient>
<linearGradient id="paint6_linear_22_209" x1="162.014" y1="744.417" x2="311.536" y2="581.151" gradientUnits="userSpaceOnUse">
<stop offset="0.08" stop-color="white" stop-opacity="0"/>
<stop offset="0.16" stop-color="white" stop-opacity="0.05"/>
<stop offset="0.3" stop-color="white" stop-opacity="0.17"/>
<stop offset="0.48" stop-color="white" stop-opacity="0.37"/>
<stop offset="0.7" stop-color="white" stop-opacity="0.64"/>
<stop offset="0.96" stop-color="white" stop-opacity="0.98"/>
<stop offset="0.97" stop-color="white"/>
</linearGradient>
</defs>
</svg>
