<svg width="32" height="32" viewBox="0 0 32 32" fill="none" xmlns="http://www.w3.org/2000/svg">
<path d="M16 2.6665C14.249 2.6665 12.5152 3.01138 10.8975 3.68144C9.27987 4.35151 7.81001 5.33363 6.5719 6.57175C4.07141 9.07223 2.66666 12.4636 2.66666 15.9998C2.66666 21.8932 6.49332 26.8932 11.7867 28.6665C12.4533 28.7732 12.6667 28.3598 12.6667 27.9998V25.7465C8.97332 26.5465 8.18666 23.9598 8.18666 23.9598C7.57332 22.4132 6.70666 21.9998 6.70666 21.9998C5.49332 21.1732 6.79999 21.1998 6.79999 21.1998C8.13332 21.2932 8.83999 22.5732 8.83999 22.5732C9.99999 24.5998 11.96 23.9998 12.72 23.6798C12.84 22.8132 13.1867 22.2265 13.56 21.8932C10.6 21.5598 7.49332 20.4132 7.49332 15.3332C7.49332 13.8532 7.99999 12.6665 8.86666 11.7198C8.73332 11.3865 8.26666 9.99984 8.99999 8.19984C8.99999 8.19984 10.12 7.83984 12.6667 9.55984C13.72 9.2665 14.8667 9.11984 16 9.11984C17.1333 9.11984 18.28 9.2665 19.3333 9.55984C21.88 7.83984 23 8.19984 23 8.19984C23.7333 9.99984 23.2667 11.3865 23.1333 11.7198C24 12.6665 24.5067 13.8532 24.5067 15.3332C24.5067 20.4265 21.3867 21.5465 18.4133 21.8798C18.8933 22.2932 19.3333 23.1065 19.3333 24.3465V27.9998C19.3333 28.3598 19.5467 28.7865 20.2267 28.6665C25.52 26.8798 29.3333 21.8932 29.3333 15.9998C29.3333 14.2489 28.9885 12.5151 28.3184 10.8974C27.6483 9.27971 26.6662 7.80986 25.4281 6.57175C24.19 5.33363 22.7201 4.35151 21.1024 3.68144C19.4848 3.01138 17.751 2.6665 16 2.6665Z" fill="#4D4D4D"/>
</svg>
