<svg width="40" height="40" viewBox="0 0 40 40" fill="none" xmlns="http://www.w3.org/2000/svg">
<g clip-path="url(#clip0_16_8)">
<path d="M14.696 0H4.8C2.152 0 0 2.152 0 4.8V12.296L14.696 0Z" fill="#FBB01E"/>
<path d="M35.2 0H18.432L0 15.424V35.2C0 37.848 2.152 40 4.8 40H35.2C37.848 40 40 37.848 40 35.2V4.8C40 2.152 37.848 0 35.2 0Z" fill="#FBB01E"/>
<path d="M35.28 23.6402V29.5362H32.48V28.2482C31.92 29.1922 30.848 29.6882 29.328 29.6882C26.912 29.6882 25.464 28.3442 25.464 26.5602C25.464 24.7762 26.752 23.4722 29.896 23.4722H32.28C32.28 22.1842 31.512 21.4402 29.896 21.4402C28.8 21.4402 27.672 21.8082 26.92 22.4002L25.848 20.3042C26.984 19.4962 28.648 19.0562 30.304 19.0562C33.456 19.0562 35.28 20.5122 35.28 23.6482V23.6402ZM32.288 26.2722V25.2162H30.232C28.832 25.2162 28.392 25.7362 28.392 26.4242C28.392 27.1762 29.024 27.6722 30.08 27.6722C31.08 27.6722 31.944 27.2082 32.288 26.2722Z" fill="white"/>
<path d="M20.008 20.1042H24.272V28.2802C22.056 29.9522 19 30.8402 16.12 30.8402C9.784 30.8402 5.12 26.4882 5.12 20.4162C5.12 14.3442 9.784 9.99219 16.208 9.99219C19.752 9.99219 22.688 11.2002 24.648 13.4802L21.656 16.2482C20.184 14.6962 18.488 13.9762 16.448 13.9762C12.528 13.9762 9.856 16.6002 9.856 20.4242C9.856 24.2482 12.536 26.8722 16.392 26.8722C17.656 26.8722 18.84 26.6402 20.024 26.0082V20.1042H20.008Z" fill="white"/>
</g>
<defs>
<clipPath id="clip0_16_8">
<rect width="40" height="40" fill="white"/>
</clipPath>
</defs>
</svg>
