<svg width="40" height="40" viewBox="0 0 40 40" fill="none" xmlns="http://www.w3.org/2000/svg">
<path d="M14.696 0H4.8C2.152 0 0 2.152 0 4.8V12.296L14.696 0Z" fill="white"/>
<path d="M35.2 0H18.432L0 15.424V35.2C0 37.848 2.152 40 4.8 40H35.2C37.848 40 40 37.848 40 35.2V4.8C40 2.152 37.848 0 35.2 0Z" fill="white"/>
<path d="M35.28 23.64V29.536H32.48V28.248C31.92 29.192 30.848 29.688 29.328 29.688C26.912 29.688 25.464 28.344 25.464 26.56C25.464 24.776 26.752 23.472 29.896 23.472H32.28C32.28 22.184 31.512 21.44 29.896 21.44C28.8 21.44 27.672 21.808 26.92 22.4L25.848 20.304C26.984 19.496 28.648 19.056 30.304 19.056C33.456 19.056 35.28 20.512 35.28 23.648V23.64ZM32.288 26.272V25.216H30.232C28.832 25.216 28.392 25.736 28.392 26.424C28.392 27.176 29.024 27.672 30.08 27.672C31.08 27.672 31.944 27.208 32.288 26.272Z" fill="#FECD04"/>
<path d="M20.008 20.104H24.272V28.28C22.056 29.952 19 30.84 16.12 30.84C9.784 30.84 5.12 26.488 5.12 20.416C5.12 14.344 9.78401 9.992 16.208 9.992C19.752 9.992 22.688 11.2 24.648 13.48L21.656 16.248C20.184 14.696 18.488 13.976 16.448 13.976C12.528 13.976 9.856 16.6 9.856 20.424C9.856 24.248 12.536 26.872 16.392 26.872C17.656 26.872 18.84 26.64 20.024 26.008V20.104H20.008Z" fill="#FECD04"/>
</svg>
