<svg width="50" height="50" viewBox="0 0 50 50" fill="none" xmlns="http://www.w3.org/2000/svg">
<path fill-rule="evenodd" clip-rule="evenodd" d="M6.21429 31.6429C7.06677 31.6429 7.88433 31.9533 8.48713 32.5058C9.08993 33.0584 9.42857 33.8078 9.42857 34.5893C9.42857 35.3707 9.08993 36.1202 8.48713 36.6727C7.88433 37.2253 7.06677 37.5357 6.21429 37.5357C5.3618 37.5357 4.54424 37.2253 3.94144 36.6727C3.33865 36.1202 3 35.3707 3 34.5893C3 33.8078 3.33865 33.0584 3.94144 32.5058C4.54424 31.9533 5.3618 31.6429 6.21429 31.6429ZM44.7836 32.625C45.9686 32.625 46.9286 33.4971 46.9286 34.5893C46.9286 35.6746 45.975 36.5536 44.7836 36.5536H14.7879C14.5061 36.5543 14.227 36.5041 13.9665 36.4057C13.706 36.3073 13.4693 36.1626 13.27 35.9801C13.0707 35.7976 12.9126 35.5807 12.805 35.3421C12.6974 35.1034 12.6423 34.8475 12.6429 34.5893C12.6429 33.504 13.5964 32.625 14.7879 32.625H44.7836ZM6.21429 21.8214C7.06677 21.8214 7.88433 22.1319 8.48713 22.6844C9.08993 23.237 9.42857 23.9864 9.42857 24.7679C9.42857 25.5493 9.08993 26.2987 8.48713 26.8513C7.88433 27.4039 7.06677 27.7143 6.21429 27.7143C5.3618 27.7143 4.54424 27.4039 3.94144 26.8513C3.33865 26.2987 3 25.5493 3 24.7679C3 23.9864 3.33865 23.237 3.94144 22.6844C4.54424 22.1319 5.3618 21.8214 6.21429 21.8214ZM44.7836 22.8036C45.9686 22.8036 46.9286 23.6757 46.9286 24.7679C46.9286 25.8531 45.975 26.7321 44.7836 26.7321H14.7879C14.5061 26.7329 14.227 26.6827 13.9665 26.5842C13.706 26.4858 13.4693 26.3412 13.27 26.1587C13.0707 25.9761 12.9126 25.7593 12.805 25.5206C12.6974 25.2819 12.6423 25.0261 12.6429 24.7679C12.6429 23.6826 13.5964 22.8036 14.7879 22.8036H44.7836ZM6.21429 12C7.06677 12 7.88433 12.3104 8.48713 12.863C9.08993 13.4156 9.42857 14.165 9.42857 14.9464C9.42857 15.7279 9.08993 16.4773 8.48713 17.0299C7.88433 17.5824 7.06677 17.8929 6.21429 17.8929C5.3618 17.8929 4.54424 17.5824 3.94144 17.0299C3.33865 16.4773 3 15.7279 3 14.9464C3 14.165 3.33865 13.4156 3.94144 12.863C4.54424 12.3104 5.3618 12 6.21429 12ZM44.7836 12.9821C45.9686 12.9821 46.9286 13.8543 46.9286 14.9464C46.9286 16.0317 45.975 16.9107 44.7836 16.9107H14.7879C14.5061 16.9115 14.227 16.8612 13.9665 16.7628C13.706 16.6644 13.4693 16.5198 13.27 16.3372C13.0707 16.1547 12.9126 15.9379 12.805 15.6992C12.6974 15.4605 12.6423 15.2047 12.6429 14.9464C12.6429 13.8612 13.5964 12.9821 14.7879 12.9821H44.7836Z" fill="#914704"/>
</svg>
