<svg width="694" height="234" viewBox="0 0 694 234" fill="none" xmlns="http://www.w3.org/2000/svg">
<g opacity="0.5" clip-path="url(#clip0_28_25)">
<g opacity="0.6" clip-path="url(#clip1_28_25)">
<path d="M561 237.439L691.161 111.95" stroke="white" stroke-width="2" stroke-miterlimit="10" stroke-linecap="round"/>
<path d="M691.161 88L678.106 100.592" stroke="white" stroke-width="2" stroke-miterlimit="10" stroke-linecap="round"/>
<path d="M618.31 158.245L667.36 110.951" stroke="white" stroke-width="2" stroke-miterlimit="10" stroke-linecap="round"/>
<path d="M425.18 5L295 130.489" stroke="white" stroke-width="2" stroke-miterlimit="10" stroke-linecap="round"/>
<path d="M295 154.439L308.055 141.867" stroke="white" stroke-width="2" stroke-miterlimit="10" stroke-linecap="round"/>
<path d="M367.851 84.2138L318.801 131.488" stroke="white" stroke-width="2" stroke-miterlimit="10" stroke-linecap="round"/>
<path d="M570.998 18.3173C581.651 28.0737 581.651 43.8997 570.998 53.6786L445.687 168.44C435.034 178.196 417.753 178.196 407.075 168.44C396.422 158.683 396.422 142.857 407.075 133.078L532.386 18.3173C543.039 8.5609 560.32 8.5609 570.998 18.3173Z" fill="url(#paint0_linear_28_25)"/>
<path d="M491.246 91.3553C501.899 101.112 501.899 116.938 491.246 126.717L365.935 241.478C355.282 251.234 338.001 251.234 327.323 241.478C316.67 231.721 316.67 215.895 327.323 206.117L452.634 91.3553C463.287 81.5989 480.568 81.5989 491.246 91.3553Z" fill="url(#paint1_linear_28_25)"/>
<path d="M223.544 154.962C228.674 159.66 228.674 167.258 223.544 171.934L163.38 227.033C158.25 231.731 149.953 231.731 144.848 227.033C139.717 222.335 139.717 214.736 144.848 210.061L205.011 154.962C210.142 150.263 218.438 150.263 223.544 154.962Z" fill="url(#paint2_linear_28_25)"/>
</g>
</g>
<defs>
<linearGradient id="paint0_linear_28_25" x1="407.1" y1="168.417" x2="556.621" y2="5.15115" gradientUnits="userSpaceOnUse">
<stop offset="0.08" stop-color="white" stop-opacity="0"/>
<stop offset="0.16" stop-color="white" stop-opacity="0.05"/>
<stop offset="0.3" stop-color="white" stop-opacity="0.17"/>
<stop offset="0.48" stop-color="white" stop-opacity="0.37"/>
<stop offset="0.7" stop-color="white" stop-opacity="0.64"/>
<stop offset="0.96" stop-color="white" stop-opacity="0.98"/>
<stop offset="0.97" stop-color="white"/>
</linearGradient>
<linearGradient id="paint1_linear_28_25" x1="327.348" y1="241.455" x2="476.869" y2="78.1892" gradientUnits="userSpaceOnUse">
<stop offset="0.08" stop-color="white" stop-opacity="0"/>
<stop offset="0.16" stop-color="white" stop-opacity="0.05"/>
<stop offset="0.3" stop-color="white" stop-opacity="0.17"/>
<stop offset="0.48" stop-color="white" stop-opacity="0.37"/>
<stop offset="0.7" stop-color="white" stop-opacity="0.64"/>
<stop offset="0.96" stop-color="white" stop-opacity="0.98"/>
<stop offset="0.97" stop-color="white"/>
</linearGradient>
<linearGradient id="paint2_linear_28_25" x1="122.862" y1="244.303" x2="203.555" y2="156.192" gradientUnits="userSpaceOnUse">
<stop offset="0.08" stop-color="white" stop-opacity="0"/>
<stop offset="0.16" stop-color="white" stop-opacity="0.05"/>
<stop offset="0.3" stop-color="white" stop-opacity="0.17"/>
<stop offset="0.48" stop-color="white" stop-opacity="0.37"/>
<stop offset="0.7" stop-color="white" stop-opacity="0.64"/>
<stop offset="0.96" stop-color="white" stop-opacity="0.98"/>
<stop offset="0.97" stop-color="white"/>
</linearGradient>
<clipPath id="clip0_28_25">
<rect width="694" height="235" fill="white" transform="translate(0 -1)"/>
</clipPath>
<clipPath id="clip1_28_25">
<rect width="629" height="238" fill="white" transform="translate(62 -1)"/>
</clipPath>
</defs>
</svg>
