<svg width="170" height="144" viewBox="0 0 170 144" fill="none" xmlns="http://www.w3.org/2000/svg">
<path d="M105.87 76.3935L93.1395 51.9951L100.584 48.28L112.92 57.0524L112.753 42.2071L120.197 38.492L132.928 62.8904L125.483 66.6055L118.822 53.8389L118.717 64.6184L115.675 66.1366L106.653 59.9118L113.315 72.6784L105.87 76.3935Z" fill="#929496"/>
<path d="M87.5877 86.2329C84.9869 87.5308 82.4125 88.1302 79.8647 88.031C77.3168 87.9318 74.9826 87.2045 72.8619 85.8492C70.7651 84.4819 69.0691 82.5571 67.7738 80.0747C66.4662 77.5687 65.8616 75.0843 65.96 72.6216C66.0822 70.1469 66.8499 67.8717 68.2628 65.7958C69.6758 63.72 71.6827 62.0331 74.2835 60.7352C76.8843 59.4372 79.4586 58.8379 82.0065 58.9371C84.542 59.0126 86.8581 59.734 88.9549 61.1013C91.0756 62.4566 92.7959 64.3991 94.1158 66.9288C95.4111 69.4112 95.9976 71.8897 95.8753 74.3644C95.777 76.8271 95.0213 79.0964 93.6083 81.1723C92.1953 83.2481 90.1885 84.935 87.5877 86.2329ZM84.22 79.7787C85.7232 79.0285 86.6498 77.836 86.9997 76.2013C87.3736 74.5546 87.067 72.7856 86.0802 70.8943C85.414 69.6176 84.6014 68.6077 83.6423 67.8647C82.707 67.1097 81.7038 66.6568 80.6327 66.506C79.5731 66.3196 78.5303 66.4824 77.5043 66.9945C76.0011 67.7446 75.0869 68.9607 74.7616 70.6428C74.424 72.3012 74.7609 74.0997 75.7724 76.0383C76.7593 77.9297 78.0322 79.2164 79.5911 79.8986C81.1499 80.5807 82.6929 80.5408 84.22 79.7787Z" fill="#929496"/>
<path d="M49.4801 104.535L36.731 80.1011L45.0703 75.9394C49.1265 73.9151 52.5261 73.0529 55.2689 73.3528C58.0232 73.6172 60.0665 75.026 61.3988 77.5793C62.324 79.3525 62.6601 81.0918 62.4072 82.7973C62.1658 84.4673 61.4066 86.0381 60.1295 87.5098C58.84 88.9578 57.0977 90.2296 54.9026 91.3251L53.0415 92.2538L57.3898 100.588L49.4801 104.535ZM52.0084 86.5565C53.2731 85.9254 54.1156 85.1771 54.5362 84.3117C54.9568 83.4462 54.8957 82.4934 54.3529 81.4532C53.8471 80.4838 53.1368 79.9295 52.222 79.79C51.2949 79.627 50.199 79.861 48.9344 80.4921L47.3238 81.2958L50.4694 87.3245L52.0084 86.5565Z" fill="#929496"/>
<path d="M56.7698 52.1035C52.2345 53.1641 47.2776 51.0483 42.5402 52.1231C34.9232 53.8512 29.6325 56.2679 28.2792 64.3373C27.9635 66.2195 28.3939 67.8433 29.3324 69.4982C29.73 70.1994 30.9032 71.5893 30.1088 71.5778C24.7944 71.5007 19.3071 72.9922 15.5353 76.8021C11.668 80.7085 7.6392 87.5257 8.64092 93.0665C9.83465 99.6693 12.1206 107.164 19.345 109.781C23.3003 111.214 21.2933 112.923 21.4299 116.717C21.6244 122.114 24.4959 129.528 29.3886 132.385C34.9513 135.634 40.3147 135.137 46.3549 133.381C48.8802 132.647 53.0316 131.48 53.8361 128.836C54.1411 127.833 61.5444 130.547 63.2079 130.557C69.883 130.598 80.8293 128.664 85.0666 122.952C87.6854 119.422 89.152 115.469 89.9941 111.277C90.7198 107.664 89.9465 106.952 93.311 107.547C98.8645 108.527 103.529 107.87 109.032 106.27C115.832 104.293 122.448 94.9341 120.469 88.1254" stroke="#929496" stroke-width="3" stroke-linecap="round"/>
<path d="M64.9241 41.3914C65.1287 42.0953 65.14 39.3067 65.21 38.9622C65.6334 36.8791 66.7729 34.2197 67.8332 32.3346C70.7549 27.1398 76.6885 22.8158 82.7265 22.1403C85.66 21.8121 92.8251 22.8894 94.2651 25.8243C94.8354 26.9868 95.1045 25.0512 95.1789 24.6138C95.5351 22.5174 97.4031 19.8631 98.923 18.312C101.668 15.5108 107.97 10.3652 112.382 11.8908C115.801 13.0731 116.522 19.2414 119.54 16.392C122.581 13.5199 131.688 11.2826 135.717 12.1456C142.795 13.6615 146.952 18.549 148.867 25.1366C149.247 26.4459 149.525 30.5077 148.626 31.7232C148.058 32.4911 150.416 32.0393 150.893 32.107C152.36 32.3152 154.549 33.046 155.723 33.8961C159.311 36.4956 161.179 39.9571 162.396 44.1428C163.762 48.8412 163.351 51.846 162.291 56.49C161.132 61.5669 156.808 67.7536 152.467 70.9454C150.564 72.345 147.504 74.4515 144.979 74.1324C144.019 74.0111 139.471 74.2672 141.431 73.6972" stroke="#929496" stroke-width="3" stroke-linecap="round"/>
<path d="M131.307 92C132.647 94.7959 150.671 111.321 151.307 109.915" stroke="#929496" stroke-width="3" stroke-linecap="round"/>
</svg>
