<svg width="53" height="32" viewBox="0 0 53 32" fill="none" xmlns="http://www.w3.org/2000/svg">
<g clip-path="url(#clip0_22_602)">
<path d="M7.87863 8.48124C6.83781 8.48379 5.80708 8.68529 4.84194 9.0749C3.90759 9.45327 3.05378 10.006 2.32608 10.7036C1.60543 11.3962 1.02608 12.2222 0.620148 13.1356C0.202268 14.0821 -0.00913774 15.1068 1.00296e-05 16.1414C-0.00757093 17.1723 0.203802 18.193 0.620148 19.1361C1.02615 20.0539 1.60709 20.8837 2.33049 21.5792C3.83998 23.0259 5.85405 23.8271 7.94484 23.8126C8.68051 23.8155 9.41321 23.719 10.123 23.5257C10.8095 23.3371 11.4683 23.0597 12.0828 22.7003L13.5989 24.2407C13.7179 24.3608 13.8595 24.4561 14.0156 24.5212C14.1717 24.5863 14.3391 24.6198 14.5081 24.6198C14.6772 24.6198 14.8446 24.5863 15.0007 24.5212C15.1568 24.4561 15.2984 24.3608 15.4174 24.2407C15.6553 24.0009 15.7887 23.6769 15.7887 23.3392C15.7887 23.0014 15.6553 22.6774 15.4174 22.4377L14.0403 21.0606C14.6168 20.3916 15.0744 19.6287 15.3931 18.8051C15.7248 17.9555 15.894 17.0512 15.8919 16.1392C15.9003 15.1044 15.6882 14.0797 15.2695 13.1334C14.8623 12.2196 14.2814 11.3936 13.5592 10.7014C12.8287 10.0036 11.9718 9.45162 11.0345 9.0749C10.0544 8.67841 9.00654 8.47604 7.94925 8.47904H7.88084L7.87863 8.48124ZM32.8298 8.88952V12.1646H31.1415V14.5105H32.8298V19.2377C32.8298 20.1616 32.9468 20.9178 33.1807 21.5063C33.379 22.0419 33.7074 22.5197 34.1363 22.8967C34.5458 23.2412 35.0327 23.4812 35.5553 23.5963C36.0555 23.7257 36.5703 23.7895 37.0869 23.7861H38.9694V21.5505H37.3451C37.0825 21.5509 36.8212 21.5152 36.5683 21.4446C36.3271 21.3743 36.1066 21.2463 35.9261 21.0716C35.7235 20.8722 35.5721 20.6269 35.4847 20.3566C35.3677 19.9863 35.3125 19.5993 35.3214 19.2112V14.5105H38.9981V12.1646H35.3346V8.88952H32.8298ZM20.7448 9.61338C20.5447 9.61338 20.3465 9.65284 20.1616 9.72951C19.9767 9.80617 19.8087 9.91853 19.6673 10.0602C19.5259 10.2018 19.4137 10.3699 19.3374 10.5549C19.261 10.7399 19.2218 10.9382 19.2221 11.1383C19.2221 11.5422 19.3825 11.9295 19.6681 12.2151C19.9537 12.5007 20.341 12.6611 20.7448 12.6611C20.945 12.6614 21.1432 12.6222 21.3282 12.5458C21.5132 12.4694 21.6814 12.3573 21.823 12.2159C21.9646 12.0745 22.077 11.9065 22.1537 11.7216C22.2303 11.5367 22.2698 11.3385 22.2698 11.1383C22.2701 10.9382 22.2309 10.7399 22.1545 10.5549C22.0781 10.3699 21.966 10.2018 21.8246 10.0602C21.6831 9.91853 21.5152 9.80617 21.3303 9.72951C21.1454 9.65284 20.9472 9.61338 20.747 9.61338H20.7448ZM26.8601 9.61338C26.66 9.61338 26.4618 9.65284 26.2769 9.72951C26.092 9.80617 25.924 9.91853 25.7826 10.0602C25.6412 10.2018 25.5291 10.3699 25.4527 10.5549C25.3763 10.7399 25.3371 10.9382 25.3374 11.1383C25.3374 11.5422 25.4978 11.9295 25.7834 12.2151C26.069 12.5007 26.4563 12.6611 26.8601 12.6611C27.0603 12.6614 27.2585 12.6222 27.4436 12.5458C27.6286 12.4694 27.7967 12.3573 27.9383 12.2159C28.08 12.0745 28.1923 11.9065 28.269 11.7216C28.3456 11.5367 28.3851 11.3385 28.3851 11.1383C28.3854 10.9382 28.3462 10.7399 28.2698 10.5549C28.1934 10.3699 28.0813 10.2018 27.9399 10.0602C27.7985 9.91853 27.6305 9.80617 27.4456 9.72951C27.2607 9.65284 27.0625 9.61338 26.8623 9.61338H26.8601ZM7.88084 10.8007H7.94704C8.65212 10.7973 9.35049 10.9377 9.99946 11.2134C10.6272 11.478 11.1966 11.8636 11.6752 12.3483C12.1538 12.833 12.5323 13.4072 12.789 14.0382C13.0631 14.7085 13.2026 15.4261 13.1995 16.1502C13.2086 16.8749 13.0689 17.5937 12.789 18.2622C12.5292 18.8931 12.1501 19.4679 11.6723 19.9549C11.1849 20.4463 10.6044 20.8356 9.96474 21.1001C9.32511 21.3646 8.63919 21.499 7.94704 21.4953C7.24182 21.5026 6.54282 21.3628 5.89463 21.0848C5.2721 20.8182 4.70648 20.4346 4.22842 19.9549C3.23044 18.942 2.67557 17.5743 2.6858 16.1524C2.67564 14.7279 3.23033 13.3575 4.22842 12.3411C4.70732 11.862 5.2737 11.4791 5.89684 11.2134C6.52302 10.9442 7.19702 10.8038 7.87863 10.8007H7.88084ZM46.8281 12.5066C46.0561 12.5073 45.2916 12.6579 44.5771 12.9502C43.9028 13.2331 43.2914 13.6472 42.7785 14.1684C42.2742 14.6823 41.88 15.2935 41.6199 15.9648C41.345 16.6664 41.2057 17.4138 41.2094 18.1673C41.2005 18.9206 41.3399 19.6682 41.6199 20.3676C41.8853 21.0362 42.2789 21.6465 42.7785 22.164C43.2887 22.6852 43.901 23.0954 44.5771 23.369C45.3186 23.6717 46.1134 23.8218 46.9142 23.8103C47.2986 23.8108 47.6819 23.7693 48.0574 23.6868C48.4054 23.6123 48.7453 23.5044 49.0726 23.3646C49.3764 23.2353 49.6675 23.0779 49.9421 22.8945C50.2006 22.7227 50.4436 22.5284 50.6681 22.3141L50.8116 23.4837H52.9655V12.8266H50.8116L50.6615 14.0029C50.4409 13.7923 50.2032 13.6004 49.9509 13.4291C49.6774 13.2414 49.3862 13.081 49.0814 12.9502C48.7522 12.8121 48.4109 12.7049 48.0618 12.6302C47.6842 12.5472 47.2986 12.5057 46.912 12.5066H46.8281ZM19.5178 14.3692V23.5014H21.9741V14.367L19.5178 14.3692ZM25.6309 14.3692V23.5014H28.0894V14.367L25.6309 14.3692ZM47.0819 14.6892H47.1349C48.0403 14.6852 48.9109 15.038 49.5581 15.6713C49.8745 15.9824 50.1252 16.3539 50.2952 16.7637C50.4774 17.2051 50.5683 17.6788 50.5622 18.1563C50.571 18.6404 50.4801 19.1212 50.2952 19.5687C50.1229 19.9777 49.8751 20.3505 49.5647 20.6677C49.2549 20.975 48.8874 21.218 48.4833 21.3828C47.6277 21.7214 46.6752 21.7214 45.8196 21.3828C45.4132 21.2188 45.0433 20.9757 44.7316 20.6677C44.4147 20.3532 44.1647 19.9779 43.9967 19.5643C43.8116 19.1183 43.72 18.6391 43.7274 18.1563C43.7189 17.6745 43.809 17.1961 43.9923 16.7505C44.1584 16.3417 44.4045 15.9703 44.7161 15.6581C45.0261 15.3516 45.3936 15.1093 45.7975 14.9452C46.2053 14.7808 46.6423 14.694 47.0819 14.6892Z" fill="#4D4D4D"/>
</g>
<defs>
<clipPath id="clip0_22_602">
<rect width="52.9655" height="32" fill="white"/>
</clipPath>
</defs>
</svg>
