<svg width="1039" height="1024" viewBox="0 0 1039 1024" fill="none" xmlns="http://www.w3.org/2000/svg">
<mask id="mask0_6_17" style="mask-type:luminance" maskUnits="userSpaceOnUse" x="-24" y="0" width="1063" height="1034">
<path d="M1038.57 0.825134H-24V1033.79H1038.57V0.825134Z" fill="white"/>
</mask>
<g mask="url(#mask0_6_17)">
<g opacity="0.5">
<path d="M-0.64743 1041.94L229.187 769.369C357.916 616.701 357.264 368.417 227.74 214.834C98.215 61.2225 97.5636 -187.062 226.292 -339.701L496.777 -660.485" stroke="#929496" stroke-width="0.5" stroke-miterlimit="10"/>
<path d="M4.46698 1048.01L234.302 775.434C363.03 622.767 362.379 374.482 232.854 220.899C103.329 67.288 102.678 -180.997 231.407 -333.635L501.891 -654.42" stroke="#929496" stroke-width="0.5" stroke-miterlimit="10"/>
<path d="M9.58139 1054.07L239.416 781.499C368.145 628.832 367.493 380.548 237.969 226.965C108.444 73.3534 107.792 -174.931 236.521 -327.57L507.006 -648.383" stroke="#929496" stroke-width="0.5" stroke-miterlimit="10"/>
<path d="M14.6958 1060.14L244.53 787.565C373.259 634.898 372.608 386.613 243.083 233.03C113.558 79.419 112.907 -168.866 241.635 -321.504L512.12 -642.317" stroke="#929496" stroke-width="0.5" stroke-miterlimit="10"/>
<path d="M19.7861 1066.21L249.621 793.631C378.349 640.963 377.698 392.679 248.173 239.096C118.648 85.4845 117.997 -162.8 246.726 -315.439L517.234 -636.252" stroke="#929496" stroke-width="0.5" stroke-miterlimit="10"/>
<path d="M24.9005 1072.27L254.735 799.696C383.464 647.029 382.812 398.744 253.288 245.161C123.763 91.55 123.111 -156.735 251.84 -309.373L522.349 -630.186" stroke="#929496" stroke-width="0.5" stroke-miterlimit="10"/>
<path d="M30.0149 1078.34L259.849 805.761C388.578 653.094 387.927 404.81 258.402 251.227C128.877 97.6154 128.226 -150.669 256.955 -303.308L527.463 -624.121" stroke="#929496" stroke-width="0.5" stroke-miterlimit="10"/>
<path d="M35.1293 1084.4L264.964 811.827C393.692 659.16 393.041 410.875 263.516 257.292C133.992 103.681 133.34 -144.604 262.069 -297.242L532.577 -618.055" stroke="#929496" stroke-width="0.5" stroke-miterlimit="10"/>
<path d="M40.2437 1090.44L270.078 817.864C398.807 665.197 398.156 416.912 268.631 263.329C139.106 109.718 138.455 -138.567 267.183 -291.205L537.668 -611.99" stroke="#929496" stroke-width="0.5" stroke-miterlimit="10"/>
<path d="M45.3581 1096.5L275.193 823.929C403.921 671.262 403.27 422.977 273.745 269.395C144.221 115.783 143.569 -132.501 272.298 -285.14L542.782 -605.953" stroke="#929496" stroke-width="0.5" stroke-miterlimit="10"/>
<path d="M50.4725 1102.57L280.307 829.995C409.036 677.328 408.384 429.043 278.86 275.46C149.335 121.849 148.684 -126.436 277.412 -279.074L547.897 -599.887" stroke="#929496" stroke-width="0.5" stroke-miterlimit="10"/>
<path d="M55.5628 1108.64L285.397 836.06C414.126 683.393 413.475 435.108 283.95 281.526C154.425 127.914 153.774 -120.37 282.502 -273.009L553.011 -593.822" stroke="#929496" stroke-width="0.5" stroke-miterlimit="10"/>
<path d="M60.6772 1114.7L290.512 842.126C419.24 689.458 418.589 441.174 289.064 287.591C159.54 133.98 158.888 -114.305 287.617 -266.943L558.125 -587.756" stroke="#929496" stroke-width="0.5" stroke-miterlimit="10"/>
<path d="M65.7916 1120.77L295.626 848.191C424.355 695.524 423.703 447.239 294.179 293.657C164.654 140.045 164.003 -108.239 292.731 -260.878L563.24 -581.691" stroke="#929496" stroke-width="0.5" stroke-miterlimit="10"/>
<path d="M70.906 1126.83L300.741 854.257C429.469 701.59 428.818 453.305 299.293 299.722C169.768 146.111 169.117 -102.174 297.846 -254.812L568.354 -575.625" stroke="#929496" stroke-width="0.5" stroke-miterlimit="10"/>
<path d="M76.0204 1132.87L305.855 860.294C434.584 707.627 433.932 459.342 304.408 305.759C174.883 152.148 174.231 -96.1368 302.96 -248.775L573.444 -569.56" stroke="#929496" stroke-width="0.5" stroke-miterlimit="10"/>
<path d="M81.1348 1138.93L310.969 866.359C439.698 713.692 439.047 465.408 309.522 311.825C179.997 158.213 179.346 -90.0713 308.074 -242.71L578.559 -563.494" stroke="#929496" stroke-width="0.5" stroke-miterlimit="10"/>
<path d="M86.2492 1145L316.084 872.425C444.812 719.758 444.161 471.473 314.636 317.89C185.112 164.279 184.46 -84.0058 313.189 -236.644L583.673 -557.429" stroke="#929496" stroke-width="0.5" stroke-miterlimit="10"/>
<path d="M91.3636 1151.07L321.198 878.49C449.927 725.823 449.275 477.539 319.751 323.956C190.226 170.344 189.575 -77.9403 318.303 -230.579L588.788 -551.363" stroke="#929496" stroke-width="0.5" stroke-miterlimit="10"/>
<path d="M96.4539 1157.13L326.288 884.556C455.017 731.889 454.366 483.604 324.841 330.021C195.316 176.41 194.665 -71.8749 323.394 -224.514L593.878 -545.298" stroke="#929496" stroke-width="0.5" stroke-miterlimit="10"/>
<path d="M101.568 1163.2L331.403 890.621C460.131 737.954 459.48 489.669 329.955 336.087C200.431 182.475 199.779 -65.8094 328.508 -218.448L598.992 -539.232" stroke="#929496" stroke-width="0.5" stroke-miterlimit="10"/>
<path d="M106.683 1169.26L336.517 896.687C465.246 744.019 464.594 495.735 335.07 342.152C205.545 188.541 204.894 -59.7439 333.622 -212.383L604.107 -533.167" stroke="#929496" stroke-width="0.5" stroke-miterlimit="10"/>
<path d="M111.797 1175.33L341.632 902.752C470.36 750.085 469.709 501.8 340.184 348.218C210.66 194.606 210.008 -53.6784 338.737 -206.317L609.221 -527.101" stroke="#929496" stroke-width="0.5" stroke-miterlimit="10"/>
<path d="M116.911 1181.36L346.746 908.789C475.475 756.122 474.823 507.837 345.299 354.254C215.774 200.643 215.123 -47.6416 343.851 -200.28L614.336 -521.065" stroke="#929496" stroke-width="0.5" stroke-miterlimit="10"/>
<path d="M122.026 1187.43L351.861 914.854C480.589 762.187 479.938 513.903 350.413 360.32C220.888 206.708 220.237 -41.5761 348.966 -194.215L619.45 -514.999" stroke="#929496" stroke-width="0.5" stroke-miterlimit="10"/>
<path d="M127.14 1193.5L356.975 920.92C485.704 768.253 485.052 519.968 355.527 366.385C226.003 212.774 225.351 -35.5105 354.08 -188.149L624.564 -508.934" stroke="#929496" stroke-width="0.5" stroke-miterlimit="10"/>
<path d="M132.231 1199.56L362.065 926.986C490.794 774.318 490.142 526.034 360.618 372.451C231.093 218.84 230.442 -29.4451 359.17 -182.084L629.655 -502.868" stroke="#929496" stroke-width="0.5" stroke-miterlimit="10"/>
<path d="M137.345 1205.63L367.18 933.051C495.908 780.384 495.257 532.099 365.732 378.516C236.207 224.905 235.556 -23.3796 364.285 -176.018L634.769 -496.803" stroke="#929496" stroke-width="0.5" stroke-miterlimit="10"/>
<path d="M142.459 1211.69L372.294 939.117C501.023 786.449 500.371 538.165 370.846 384.582C241.322 230.971 240.67 -17.314 369.399 -169.953L639.883 -490.737" stroke="#929496" stroke-width="0.5" stroke-miterlimit="10"/>
<path d="M147.574 1217.76L377.408 945.182C506.137 792.515 505.486 544.23 375.961 390.647C246.436 237.036 245.785 -11.2486 374.513 -163.887L644.998 -484.672" stroke="#929496" stroke-width="0.5" stroke-miterlimit="10"/>
<path d="M152.688 1223.79L382.523 951.219C511.251 798.552 510.6 550.267 381.075 396.684C251.551 243.073 250.899 -5.21177 379.628 -157.85L650.112 -478.635" stroke="#929496" stroke-width="0.5" stroke-miterlimit="10"/>
<path d="M157.803 1229.86L387.637 957.284C516.366 804.617 515.714 556.333 386.19 402.75C256.665 249.138 256.014 0.853721 384.742 -151.785L655.227 -472.569" stroke="#929496" stroke-width="0.5" stroke-miterlimit="10"/>
<path d="M162.917 1235.93L392.752 963.35C521.48 810.683 520.829 562.398 391.304 408.815C261.779 255.204 261.128 6.91923 389.857 -145.719L660.341 -466.504" stroke="#929496" stroke-width="0.5" stroke-miterlimit="10"/>
<path d="M168.031 1241.99L397.866 969.415C526.595 816.748 525.943 568.464 396.419 414.881C266.894 261.269 266.242 12.9847 394.971 -139.654L665.456 -460.438" stroke="#929496" stroke-width="0.5" stroke-miterlimit="10"/>
<path d="M173.122 1248.06L402.956 975.481C531.685 822.814 531.034 574.529 401.509 420.946C271.984 267.335 271.333 19.0502 400.061 -133.588L670.546 -454.373" stroke="#929496" stroke-width="0.5" stroke-miterlimit="10"/>
<path d="M178.236 1254.12L408.071 981.546C536.799 828.879 536.148 580.595 406.623 427.012C277.099 273.4 276.447 25.1157 405.176 -127.523L675.66 -448.307" stroke="#929496" stroke-width="0.5" stroke-miterlimit="10"/>
<path d="M183.35 1260.19L413.185 987.612C541.914 834.945 541.262 586.66 411.738 433.077C282.213 279.466 281.562 31.1812 410.29 -121.457L680.775 -442.242" stroke="#929496" stroke-width="0.5" stroke-miterlimit="10"/>
<path d="M188.465 1266.25L418.299 993.677C547.028 841.01 546.377 592.726 416.852 439.143C287.327 285.531 286.676 37.2467 415.405 -115.392L685.889 -436.176" stroke="#929496" stroke-width="0.5" stroke-miterlimit="10"/>
<path d="M193.579 1272.29L423.414 999.714C552.143 847.047 551.491 598.763 421.966 445.18C292.442 291.568 291.79 43.2836 420.519 -109.355L691.003 -430.139" stroke="#929496" stroke-width="0.5" stroke-miterlimit="10"/>
<path d="M198.694 1278.35L428.528 1005.78C557.257 853.112 556.606 604.828 427.081 451.245C297.556 297.634 296.905 49.349 425.633 -103.29L696.118 -424.074" stroke="#929496" stroke-width="0.5" stroke-miterlimit="10"/>
<path d="M203.808 1284.42L433.643 1011.85C562.371 859.178 561.72 610.893 432.195 457.311C302.671 303.699 302.019 55.4146 430.748 -97.2241L701.232 -418.008" stroke="#929496" stroke-width="0.5" stroke-miterlimit="10"/>
<path d="M208.898 1290.49L438.733 1017.91C567.462 865.243 566.81 616.959 437.286 463.376C307.761 309.765 307.109 61.48 435.838 -91.1586L706.323 -411.943" stroke="#929496" stroke-width="0.5" stroke-miterlimit="10"/>
<path d="M214.013 1296.55L443.847 1023.98C572.576 871.309 571.925 623.024 442.4 469.442C312.875 315.83 312.224 67.5455 440.952 -85.0932L711.437 -405.878" stroke="#929496" stroke-width="0.5" stroke-miterlimit="10"/>
<path d="M219.127 1302.62L448.962 1030.04C577.69 877.374 577.039 629.09 447.514 475.507C317.99 321.896 317.338 73.611 446.067 -79.0276L716.551 -399.812" stroke="#929496" stroke-width="0.5" stroke-miterlimit="10"/>
<path d="M224.242 1308.68L454.076 1036.11C582.805 883.44 582.153 635.155 452.629 481.573C323.104 327.961 322.453 79.6765 451.181 -72.9621L721.666 -393.746" stroke="#929496" stroke-width="0.5" stroke-miterlimit="10"/>
<path d="M229.356 1314.72L459.191 1042.14C587.919 889.477 587.268 641.192 457.743 487.609C328.218 333.998 327.567 85.7135 456.296 -66.9252L726.78 -387.71" stroke="#929496" stroke-width="0.5" stroke-miterlimit="10"/>
<path d="M234.47 1320.78L464.305 1048.21C593.034 895.542 592.382 647.258 462.858 493.675C333.333 340.063 332.681 91.7789 461.41 -60.8598L731.894 -381.644" stroke="#929496" stroke-width="0.5" stroke-miterlimit="10"/>
<path d="M239.585 1326.85L469.419 1054.28C598.148 901.608 597.497 653.323 467.972 499.74C338.447 346.129 337.796 97.8444 466.524 -54.7942L737.009 -375.579" stroke="#929496" stroke-width="0.5" stroke-miterlimit="10"/>
<path d="M244.699 1332.92L474.534 1060.34C603.262 907.673 602.611 659.389 473.086 505.806C343.562 352.194 342.91 103.91 471.639 -48.7288L742.123 -369.513" stroke="#929496" stroke-width="0.5" stroke-miterlimit="10"/>
<path d="M249.789 1338.98L479.624 1066.41C608.353 913.739 607.701 665.454 478.177 511.871C348.652 358.26 348.001 109.975 476.729 -42.6633L747.214 -363.448" stroke="#929496" stroke-width="0.5" stroke-miterlimit="10"/>
<path d="M254.904 1345.05L484.739 1072.47C613.467 919.804 612.816 671.52 483.291 517.937C353.766 364.325 353.115 116.041 481.844 -36.5978L752.328 -357.382" stroke="#929496" stroke-width="0.5" stroke-miterlimit="10"/>
<path d="M260.018 1351.11L489.853 1078.54C618.582 925.87 617.93 677.585 488.405 524.002C358.881 370.391 358.229 122.106 486.958 -30.5323L757.442 -351.317" stroke="#929496" stroke-width="0.5" stroke-miterlimit="10"/>
<path d="M265.133 1357.18L494.967 1084.6C623.696 931.935 623.045 683.651 493.52 530.068C363.995 376.456 363.344 128.172 492.072 -24.4668L762.557 -345.251" stroke="#929496" stroke-width="0.5" stroke-miterlimit="10"/>
<path d="M270.247 1363.21L500.082 1090.64C628.81 937.972 628.159 689.688 498.634 536.105C369.11 382.493 368.458 134.209 497.187 -18.4299L767.671 -339.214" stroke="#929496" stroke-width="0.5" stroke-miterlimit="10"/>
<path d="M275.362 1369.28L505.196 1096.7C633.925 944.038 633.273 695.753 503.749 542.17C374.224 388.559 373.573 140.274 502.301 -12.3644L772.786 -333.149" stroke="#929496" stroke-width="0.5" stroke-miterlimit="10"/>
<path d="M280.476 1375.35L510.311 1102.77C639.039 950.103 638.388 701.819 508.863 548.236C379.338 394.624 378.687 146.34 507.416 -6.29892L777.9 -327.083" stroke="#929496" stroke-width="0.5" stroke-miterlimit="10"/>
<path d="M285.566 1381.41L515.401 1108.84C644.129 956.169 643.478 707.884 513.953 554.301C384.429 400.69 383.777 152.405 512.506 -0.233417L782.99 -321.018" stroke="#929496" stroke-width="0.5" stroke-miterlimit="10"/>
<path d="M290.681 1387.48L520.515 1114.9C649.244 962.234 648.592 713.95 519.068 560.367C389.543 406.755 388.892 158.471 517.62 5.83203L788.105 -314.952" stroke="#929496" stroke-width="0.5" stroke-miterlimit="10"/>
<path d="M295.795 1393.54L525.63 1120.97C654.358 968.3 653.707 720.015 524.182 566.432C394.657 412.821 394.006 164.536 522.735 11.8976L793.219 -308.887" stroke="#929496" stroke-width="0.5" stroke-miterlimit="10"/>
<path d="M300.909 1399.61L530.744 1127.03C659.473 974.365 658.821 726.081 529.297 572.498C399.772 418.886 399.12 170.602 527.849 17.963L798.334 -302.821" stroke="#929496" stroke-width="0.5" stroke-miterlimit="10"/>
<path d="M306.024 1405.64L535.858 1133.07C664.587 980.402 663.936 732.117 534.411 578.535C404.886 424.923 404.235 176.639 532.963 23.9999L803.448 -296.784" stroke="#929496" stroke-width="0.5" stroke-miterlimit="10"/>
<path d="M311.138 1411.71L540.973 1139.13C669.701 986.467 669.05 738.183 539.525 584.6C410.001 430.989 409.349 182.704 538.078 30.0654L808.562 -290.719" stroke="#929496" stroke-width="0.5" stroke-miterlimit="10"/>
<path d="M316.253 1417.78L546.087 1145.2C674.816 992.533 674.164 744.248 544.64 590.666C415.115 437.054 414.464 188.77 543.192 36.1309L813.677 -284.653" stroke="#929496" stroke-width="0.5" stroke-miterlimit="10"/>
<path d="M321.367 1423.84L551.202 1151.27C679.93 998.598 679.279 750.314 549.754 596.731C420.229 443.12 419.578 194.835 548.307 42.1964L818.791 -278.588" stroke="#929496" stroke-width="0.5" stroke-miterlimit="10"/>
<path d="M326.457 1429.91L556.292 1157.33C685.02 1004.66 684.369 756.379 554.844 602.796C425.32 449.185 424.668 200.9 553.397 48.2618L823.881 -272.523" stroke="#929496" stroke-width="0.5" stroke-miterlimit="10"/>
<path d="M331.572 1435.97L561.406 1163.4C690.135 1010.73 689.484 762.445 559.959 608.862C430.434 455.251 429.783 206.966 558.511 54.3274L828.996 -266.457" stroke="#929496" stroke-width="0.5" stroke-miterlimit="10"/>
<path d="M336.686 1442.04L566.521 1169.46C695.249 1016.79 694.598 768.51 565.073 614.928C435.549 461.316 434.897 213.031 563.626 60.3928L834.11 -260.392" stroke="#929496" stroke-width="0.5" stroke-miterlimit="10"/>
<path d="M341.801 1448.1L571.635 1175.53C700.364 1022.86 699.712 774.576 570.188 620.993C440.663 467.382 440.012 219.097 568.74 66.4583L839.225 -254.326" stroke="#929496" stroke-width="0.5" stroke-miterlimit="10"/>
<path d="M346.915 1454.14L576.75 1181.56C705.478 1028.9 704.827 780.613 575.302 627.03C445.777 473.418 445.126 225.134 573.855 72.4952L844.339 -248.289" stroke="#929496" stroke-width="0.5" stroke-miterlimit="10"/>
<path d="M352.029 1460.21L581.864 1187.63C710.593 1034.96 709.941 786.678 580.417 633.095C450.892 479.484 450.24 231.199 578.969 78.5607L849.454 -242.224" stroke="#929496" stroke-width="0.5" stroke-miterlimit="10"/>
<path d="M357.144 1466.27L586.978 1193.7C715.707 1041.03 715.056 792.744 585.531 639.161C456.006 485.549 455.355 237.265 584.083 84.6262L854.568 -236.158" stroke="#929496" stroke-width="0.5" stroke-miterlimit="10"/>
<path d="M362.234 1472.34L592.069 1199.76C720.797 1047.09 720.146 798.809 590.621 645.226C461.096 491.615 460.445 243.33 589.174 90.6917L859.658 -230.093" stroke="#929496" stroke-width="0.5" stroke-miterlimit="10"/>
<path d="M367.348 1478.4L597.183 1205.83C725.912 1053.16 725.26 804.875 595.736 651.292C466.211 497.68 465.56 249.396 594.288 96.7572L864.773 -224.027" stroke="#929496" stroke-width="0.5" stroke-miterlimit="10"/>
<path d="M372.463 1484.47L602.297 1211.89C731.026 1059.22 730.375 810.94 600.85 657.357C471.325 503.746 470.674 255.461 599.402 102.823L869.887 -217.962" stroke="#929496" stroke-width="0.5" stroke-miterlimit="10"/>
<path d="M377.577 1490.53L607.412 1217.96C736.14 1065.29 735.489 817.006 605.964 663.423C476.44 509.811 475.788 261.527 604.517 108.888L875.001 -211.896" stroke="#929496" stroke-width="0.5" stroke-miterlimit="10"/>
<path d="M382.692 1496.57L612.526 1223.99C741.255 1071.33 740.603 823.043 611.079 669.46C481.554 515.848 480.903 267.564 609.631 114.925L880.116 -205.859" stroke="#929496" stroke-width="0.5" stroke-miterlimit="10"/>
<path d="M387.806 1502.64L617.641 1230.06C746.369 1077.39 745.718 829.108 616.193 675.525C486.668 521.914 486.017 273.629 614.746 120.991L885.23 -199.794" stroke="#929496" stroke-width="0.5" stroke-miterlimit="10"/>
<path d="M392.921 1508.7L622.755 1236.13C751.484 1083.46 750.832 835.174 621.308 681.591C491.783 527.979 491.132 279.695 619.86 127.056L890.345 -193.728" stroke="#929496" stroke-width="0.5" stroke-miterlimit="10"/>
<path d="M398.011 1514.77L627.845 1242.19C756.574 1089.52 755.923 841.239 626.398 687.656C496.873 534.045 496.222 285.76 624.95 133.122L895.435 -187.663" stroke="#929496" stroke-width="0.5" stroke-miterlimit="10"/>
<path d="M403.125 1520.83L632.96 1248.26C761.688 1095.59 761.037 847.304 631.512 693.722C501.987 540.11 501.336 291.826 630.065 139.187L900.549 -181.597" stroke="#929496" stroke-width="0.5" stroke-miterlimit="10"/>
<path d="M408.24 1526.9L638.074 1254.32C766.803 1101.65 766.151 853.37 636.627 699.787C507.102 546.176 506.451 297.891 635.179 145.252L905.664 -175.532" stroke="#929496" stroke-width="0.5" stroke-miterlimit="10"/>
<path d="M413.354 1532.96L643.188 1260.39C771.917 1107.72 771.266 859.435 641.741 705.853C512.216 552.241 511.565 303.957 640.293 151.318L910.778 -169.466" stroke="#929496" stroke-width="0.5" stroke-miterlimit="10"/>
<path d="M418.468 1539.03L648.303 1266.45C777.032 1113.79 776.38 865.501 646.855 711.918C517.331 558.307 516.679 310.022 645.408 157.383L915.893 -163.401" stroke="#929496" stroke-width="0.5" stroke-miterlimit="10"/>
<path d="M423.583 1545.06L653.417 1272.49C782.146 1119.82 781.495 871.538 651.97 717.955C522.445 564.344 521.794 316.059 650.522 163.42L921.007 -157.364" stroke="#929496" stroke-width="0.5" stroke-miterlimit="10"/>
<path d="M428.697 1551.13L658.532 1278.56C787.26 1125.89 786.609 877.603 657.084 724.02C527.56 570.409 526.908 322.124 655.637 169.486L926.121 -151.299" stroke="#929496" stroke-width="0.5" stroke-miterlimit="10"/>
<path d="M433.812 1557.2L663.646 1284.62C792.375 1131.95 791.723 883.669 662.199 730.086C532.674 576.475 532.023 328.19 660.751 175.551L931.236 -145.233" stroke="#929496" stroke-width="0.5" stroke-miterlimit="10"/>
<path d="M438.902 1563.26L668.736 1290.69C797.465 1138.02 796.814 889.734 667.289 736.151C537.764 582.54 537.113 334.255 665.841 181.617L936.326 -139.168" stroke="#929496" stroke-width="0.5" stroke-miterlimit="10"/>
<path d="M444.016 1569.33L673.851 1296.75C802.579 1144.08 801.928 895.8 672.403 742.217C542.879 588.606 542.227 340.321 670.956 187.682L941.44 -133.102" stroke="#929496" stroke-width="0.5" stroke-miterlimit="10"/>
<path d="M449.131 1575.39L678.965 1302.82C807.694 1150.15 807.042 901.865 677.518 748.283C547.993 594.671 547.342 346.386 676.07 193.748L946.555 -127.037" stroke="#929496" stroke-width="0.5" stroke-miterlimit="10"/>
<path d="M454.245 1581.46L684.08 1308.88C812.808 1156.22 812.157 907.931 682.632 754.348C553.107 600.736 552.456 352.452 681.185 199.813L951.669 -120.971" stroke="#929496" stroke-width="0.5" stroke-miterlimit="10"/>
<path d="M459.359 1587.49L689.194 1314.92C817.923 1162.25 817.271 913.968 687.747 760.385C558.222 606.773 557.57 358.489 686.299 205.85L956.783 -114.934" stroke="#929496" stroke-width="0.5" stroke-miterlimit="10"/>
<path d="M464.474 1593.56L694.308 1320.98C823.037 1168.32 822.386 920.033 692.861 766.45C563.336 612.839 562.685 364.554 691.413 211.916L961.898 -108.869" stroke="#929496" stroke-width="0.5" stroke-miterlimit="10"/>
<path d="M469.588 1599.63L699.423 1327.05C828.151 1174.38 827.5 926.099 697.975 772.516C568.451 618.904 567.799 370.62 696.528 217.981L967.012 -102.803" stroke="#929496" stroke-width="0.5" stroke-miterlimit="10"/>
<path d="M474.679 1605.69L704.513 1333.12C833.242 1180.45 832.59 932.164 703.066 778.581C573.541 624.97 572.89 376.685 701.618 224.047L972.103 -96.7377" stroke="#929496" stroke-width="0.5" stroke-miterlimit="10"/>
<path d="M479.793 1611.76L709.628 1339.18C838.356 1186.51 837.705 938.23 708.18 784.647C578.655 631.035 578.004 382.751 706.733 230.112L977.217 -90.6722" stroke="#929496" stroke-width="0.5" stroke-miterlimit="10"/>
<path d="M484.907 1617.82L714.742 1345.25C843.47 1192.58 842.819 944.295 713.294 790.712C583.77 637.101 583.118 388.816 711.847 236.178L982.331 -84.6067" stroke="#929496" stroke-width="0.5" stroke-miterlimit="10"/>
<path d="M490.022 1623.89L719.856 1351.31C848.585 1198.65 847.934 950.361 718.409 796.778C588.884 643.166 588.233 394.882 716.961 242.243L987.446 -78.5412" stroke="#929496" stroke-width="0.5" stroke-miterlimit="10"/>
<path d="M495.136 1629.95L724.971 1357.38C853.699 1204.71 853.048 956.426 723.523 802.843C593.999 649.232 593.347 400.947 722.076 248.309L992.56 -72.4757" stroke="#929496" stroke-width="0.5" stroke-miterlimit="10"/>
<path d="M500.251 1635.99L730.085 1363.41C858.814 1210.75 858.162 962.463 728.638 808.88C599.113 655.269 598.462 406.984 727.19 254.345L997.675 -66.4389" stroke="#929496" stroke-width="0.5" stroke-miterlimit="10"/>
<path d="M505.365 1642.06L735.2 1369.48C863.928 1216.81 863.277 968.528 733.752 814.946C604.227 661.334 603.576 413.05 732.305 260.411L1002.79 -60.3734" stroke="#929496" stroke-width="0.5" stroke-miterlimit="10"/>
<path d="M510.479 1648.12L740.314 1375.55C869.043 1222.88 868.391 974.594 738.866 821.011C609.342 667.4 608.69 419.115 737.419 266.476L1007.9 -54.308" stroke="#929496" stroke-width="0.5" stroke-miterlimit="10"/>
<path d="M515.57 1654.19L745.404 1381.61C874.133 1228.94 873.482 980.659 743.957 827.077C614.432 673.465 613.781 425.181 742.509 272.542L1012.99 -48.2424" stroke="#929496" stroke-width="0.5" stroke-miterlimit="10"/>
<path d="M520.684 1660.25L750.519 1387.68C879.247 1235.01 878.596 986.725 749.071 833.142C619.547 679.531 618.895 431.246 747.624 278.607L1018.11 -42.1769" stroke="#929496" stroke-width="0.5" stroke-miterlimit="10"/>
<path d="M525.799 1666.32L755.633 1393.74C884.362 1241.08 883.71 992.79 754.186 839.208C624.661 685.596 624.01 437.312 752.738 284.673L1023.22 -36.1113" stroke="#929496" stroke-width="0.5" stroke-miterlimit="10"/>
<path d="M530.913 1672.38L760.747 1399.81C889.476 1247.14 888.825 998.856 759.3 845.273C629.775 691.661 629.124 443.377 757.852 290.738L1028.34 -30.0461" stroke="#929496" stroke-width="0.5" stroke-miterlimit="10"/>
<path d="M536.027 1678.42L765.862 1405.84C894.59 1253.18 893.939 1004.89 764.414 851.31C634.89 697.699 634.238 449.414 762.967 296.775L1033.45 -24.009" stroke="#929496" stroke-width="0.5" stroke-miterlimit="10"/>
<path d="M541.142 1684.49L770.976 1411.91C899.705 1259.24 899.053 1010.96 769.529 857.375C640.004 703.764 639.353 455.479 768.081 302.841L1038.57 -17.9437" stroke="#929496" stroke-width="0.5" stroke-miterlimit="10"/>
</g>
</g>
</svg>
