<svg width="32" height="32" viewBox="0 0 32 32" fill="none" xmlns="http://www.w3.org/2000/svg">
<path d="M4.26361 27.542H9.24761C9.37542 27.5392 9.50069 27.5057 9.61291 27.4445C9.72514 27.3832 9.82105 27.296 9.89261 27.19L23.6136 4.64504C23.7896 4.35204 23.5846 4.00004 23.2326 4.00004H18.5126C18.3993 3.99881 18.2878 4.02816 18.1897 4.085C18.0917 4.14185 18.0108 4.22408 17.9556 4.32304L4.02961 27.132C3.94161 27.308 4.05861 27.542 4.26361 27.542ZM21.4446 27.19L27.9236 16.782C27.9698 16.7094 27.9955 16.6256 27.998 16.5395C28.0004 16.4534 27.9795 16.3683 27.9375 16.2931C27.8954 16.218 27.8338 16.1556 27.7592 16.1126C27.6846 16.0696 27.5997 16.0477 27.5136 16.049H22.8226C22.7355 16.0482 22.6495 16.0693 22.5726 16.1103C22.4957 16.1514 22.4304 16.2111 22.3826 16.284L15.7276 26.927C15.5516 27.191 15.7566 27.543 16.0796 27.543H20.8586C20.9794 27.5445 21.0983 27.5122 21.2018 27.4499C21.3053 27.3875 21.3894 27.2975 21.4446 27.19Z" fill="#4D4D4D"/>
</svg>
